<?xml version="1.0" encoding="utf-8"?>
<!-- Generator: Adobe Illustrator 24.0.1, SVG Export Plug-In . SVG Version: 6.00 Build 0)  -->
<svg version="1.1" id="Camada_1" xmlns="http://www.w3.org/2000/svg" xmlns:xlink="http://www.w3.org/1999/xlink" x="0px" y="0px"
	 viewBox="0 0 1038 793" style="enable-background:new 0 0 1038 793;" xml:space="preserve">
<style type="text/css">
	.st0{fill:#FFFFFF;}
	.st1{fill:#DD6E0C;}
</style>
<g>
	<path class="st0" d="M690.8,792.8c0,0,414.53-210.46,318.87-669.63c0,0-191.32,0-338-114.79c0,0-165.81,114.79-235.97,127.55
		c0,0,63.77,25.51,235.97-89.28c0,0,140.3,108.42,306.12,108.42c0,0,8.83,41.7,6.38,114.79C980.43,381.1,937.12,577.27,690.8,792.8"
		/>
	<path class="st0" d="M774.37,671.97c0,0,37.59-19.84,37.59-32.22c0-38.26,0-102.04,0-133.93c0-9.02-6.38-19.13-19.13-19.13
		c-32.05,0-95.66-0.28-133.93,0c-11.31,0.08-5.83-22.39-6.38-44.64c-0.45-18.48,0.59-35.96,6.38-44.64
		c11.26-16.88,37.1-57.4,57.4-57.4c6.38,0,24.62-3.28,31.89,0c19.55,8.82,51.02,51.02,51.02,51.02s16.96,12.15,19.13,12.75
		c12.67,3.51,42.48,3.62,51.02-6.38c4.27-5,8.06-25.53,6.38-31.89c-2.76-10.42-14.46-32.03-22.13-40.81
		c-2.22-2.54-3.38-5.82-3.38-9.19l0-45.21c0-4.43-1.44-8.74-4.1-12.29l-19.06-16.91c-1.53-2.04-2.35-4.51-2.35-7.06V223
		c0-2.67,1.06-5.23,2.95-7.12l9.8-9.8l6.38-12.75l-65.09,11.74c-3.26,0.65-6.65,0.09-9.53-1.59l-56.45-40.01
		c-1.86-1.32-4.09-2.03-6.37-2.03H586.73c-2.82,0-5.55-0.96-7.75-2.72l-28.49-22.79v17.32c0,1.2,0.19,2.39,0.57,3.53l4.27,12.81
		c0.99,2.97,3.01,5.49,5.7,7.1l27.72,16.63c0,0-38.26,0-44.64,0c-8.74,0-19.13,0-19.13,0c-2.17,0-13.78,0.46-15.77,1.34
		l-60.76,30.55l0,0h45.33c3.64,0,7.14,1.45,9.72,4.02l34.24,34.24l-42.05-4.2c-14.27-1.43-28.68,0.61-42,5.94h0
		c-7.67,3.07-15.86,4.65-24.12,4.65h-21.44c-15.29,0-30.24-4.53-42.96-13.01l-18.75-12.5l2.37,14.24
		c2.57,15.42,10.98,29.26,23.49,38.64l4.35,3.27c1.11,0.83,2.31,1.53,3.58,2.07l42.73,18.31l47.01,17.63c2.66,1,5.14,2.41,7.36,4.18
		l24.88,19.91c2.41,1.93,4.37,4.36,5.75,7.12l4.28,8.57l-68.9-37.58c-0.83-0.45-1.71-0.82-2.62-1.09l-59.78-17.93
		c-1.75-0.52-3.55-0.82-5.38-0.89l-232.42-6.25c-0.53-0.01-1.07-0.05-1.59-0.12l-39.39-4.92c-7.16-0.9-14.09-3.11-20.45-6.53
		L2.03,263.47l28.72,51.7c2.08,3.74,5.06,6.9,8.67,9.2l32.76,22.01c4.65,2.96,19.13,12.75,40.12,20.5l103.01,17.17
		c2.36,0.39,4.75,0.59,7.15,0.59h98.44l89.28,38.26l57.4,38.26l44.64,25.51c0,0-89.96-29.04-95.66-31.89l-60.3-30.15
		c-19.06-9.53-40.07-14.49-61.38-14.49c0,0-37.88,0-50.51,0c-4.25,0-27.98,4.7-31.89,6.38l-76.53,31.89h70.15H238
		c7.8,0,50.78,15,57.4,19.13l25.51,12.75l114.79,63.77c0,0,121.17,63.77,267.85,0c0,0,38.26-6.38,57.4-6.38
		c9.02,0,12.75,38.26,12.75,51.02c0,7.13-20.09,8.12-25.51,12.75s-13.09,18.39-12.75,25.51c0.6,12.71,26.97,43.15,26.97,43.15
		C764.99,674.28,770.66,675.15,774.37,671.97z"/>
	<path class="st1" d="M671.66,569.59c0,0-38.26,31.89-102.04,38.26c-51.07,5.11-82.91,12.75-146.68-12.75
		c-45.65-18.26-133.29-100.9-242.34-95.66c0,0,70.15-31.89,121.17-12.75s133.93,82.91,172.19,89.28
		c17.01,2.83,42.62,6.38,82.91,6.38C607.89,582.35,671.66,569.59,671.66,569.59z"/>
	<path class="st1" d="M14.79,327.25c0,0-2.49,40.44,67.04,71.65c26.48,11.89,55.33,17.63,84.36,17.63h14.02
		c4.21,0,8.37-0.63,12.39-1.91c28.29-9.03,77.29-17.23,77.29-17.23s-48.22-5.46-57.4-6.38C168.19,386.62,51.77,374.79,14.79,327.25z
		"/>
	<path class="st1" d="M186.98,250.72c0,0,12.75,44.64,51.02,57.4h95.82c4.13,0,8.26,0.41,12.31,1.22l25.79,5.16
		c0,0-13.74-22.91-33.47-37.66c-6.2-4.64-13.82-6.98-21.57-6.98l-70.77,0c-9.57,0-19.03-1.94-27.83-5.71L186.98,250.72z"/>
	<path class="st1" d="M378.3,225.21c0,0,0,38.26,38.26,38.26c0,0,23.93,0,42.82-5.8c1.23-0.38,2.46-0.71,3.72-0.96
		c6.97-1.37,30.92-6,36.36-6c0,0-6.38-12.75-31.89-19.13C467.59,231.59,391.06,231.59,378.3,225.21z"/>
</g>
</svg>
